<mxfile host="app.diagrams.net" modified="2023-05-09T07:12:14.797Z" agent="Mozilla/5.0 (Windows NT 10.0; Win64; x64) AppleWebKit/537.36 (KHTML, like Gecko) Chrome/112.0.0.0 Safari/537.36" version="21.2.9" etag="Sm2o5E9CKHQZs3BIjL6o" type="github">
  <diagram name="第 1 页" id="N2fvsjB8AGpi7kmTKr9a">
    <mxGraphModel>
      <root>
        <mxCell id="0" />
        <mxCell id="1" parent="0" />
      </root>
    </mxGraphModel>
  </diagram>
</mxfile>
